M48
METRIC,TZ
VER,1
FMAT,2
DETECT,ON
ATC,ON
T1C3.04800
T2C0.60000
T3C0.88900
T4C0.99492
T5C3.33000
T6C1.00000
%
T1
X0.00000Y0.00000
Y50.06000
X-0.11430Y63.75680
X-1.49720Y147.53490
X-4.93120Y159.83840
X68.50000Y0.00000
X68.38570Y63.75680
X68.50000Y50.06000
X71.06880Y159.83840
X67.00280Y147.53490
X-5.83430Y128.25680
X-3.83430Y92.25680
X74.16570Y128.25680
X72.16570Y92.25680
T2
X12.89000Y32.69000
X20.59000Y5.93000
X20.91000Y11.74000
X18.57000Y39.94000
X35.82000Y19.97000
X34.39000Y19.96000
X34.90000Y28.00000
X33.63000Y30.93000
X45.40000Y39.73000
X43.85000Y42.09000
X56.17430Y39.45870
X54.45430
X52.78430
X58.99000
X66.75110Y28.45000
T3
X-0.20000Y10.46000
Y7.92000
X-0.12700Y74.21990
Y71.67990
X32.64570Y90.23847
X7.24570
X4.70570
X2.16570
X12.32570
X9.78570
X14.86570
X19.94570
X17.40570
X22.48570
X27.56570
X25.02570
X30.10570
X35.18570
X48.80000Y-2.05000
X46.26000
X56.42000
X51.34000
X53.88000
X58.96000
X63.99270Y28.44050
Y25.90050
Y30.98050
X64.04000Y7.92000
Y10.46000
Y13.00000
X63.94000Y35.16000
Y40.24000
Y37.70000
X63.81570Y72.37534
Y74.91534
Y77.45534
X48.68570Y61.70680
X46.14570
X56.30570
X51.22570
X53.76570
X58.84570
X36.94000Y10.40000
Y12.94000
X32.63000Y19.30000
X31.07010Y47.77530
X28.53010
Y50.53530
X31.07010
X28.49000Y43.48000
X31.03000
X33.57000
X32.35000Y24.32450
X24.73000
X27.27000
X29.81000
X3.30000Y24.08000
Y19.00000
Y21.54000
X18.57500Y24.08000
Y19.00000
Y21.54000
X16.01000Y27.33000
Y29.87000
X8.39000Y27.33000
Y29.87000
X3.31000Y27.33000
Y29.87000
X5.85000Y27.33000
Y29.87000
X10.93000Y27.33000
Y29.87000
X13.47000Y27.33000
Y29.87000
X18.55000
X24.74000Y19.30000
X27.28000
X15.15930Y50.38380
X20.23930
X17.69930
X5.99320Y40.80100
Y43.34100
X61.29000Y2.84000
Y5.38000
X50.32000Y50.52000
X52.86000
X47.77240Y47.70600
X45.23240
X42.69240
X50.31240
X52.85240
X47.77240Y44.82600
X42.69240
X45.23240
X50.31240
X52.85240
X33.81420Y47.90970
X66.74270Y28.44050
Y25.90050
Y30.98050
X66.79000Y15.53000
Y20.61000
Y18.07000
X66.69000Y40.23000
Y34.91000
X31.49280Y145.63490
X28.95280
X36.57280
X34.03280
X39.11280
X31.79880Y161.44140
X29.25880
X39.41880
X34.33880
X36.87880
T4
X-0.20000Y13.00000
X-0.12700Y76.75990
X61.50000Y-2.05000
X63.99270Y23.36050
X63.99000Y20.56000
X64.04000Y15.54000
X63.94000Y42.78000
X63.81570Y79.99534
X61.38570Y61.70680
X36.94000Y15.48000
X30.09000Y19.30000
X25.99010Y47.77530
Y50.53530
X25.95000Y43.48000
X22.19000Y24.32450
X18.55000Y27.33000
X22.20000Y19.30000
X12.61930Y50.38380
X5.99320Y45.88100
X61.29000Y7.92000
X47.78000Y50.52000
X40.15240Y47.70600
Y44.82600
X33.81420Y50.44970
X66.74270Y23.36050
X66.79000Y12.99000
X66.69000Y42.77000
Y37.45000
X26.41280Y145.63490
X26.71880Y161.44140
T5
X23.53000Y1.14000
X33.70000
T6
X25.23110Y69.54600
X22.69110Y74.62600
X27.77110Y67.00600
X30.31110Y74.62600
X16.98110
X11.90110Y69.54600
X14.44110Y67.00600
X9.36110Y74.62600
X56.97110
X51.89110Y69.54600
X54.43110Y67.00600
X49.35110Y74.62600
X38.56110Y69.54600
X36.02110Y74.62600
X41.10110Y67.00600
X43.64110Y74.62600
M30
